<svg xmlns="http://www.w3.org/2000/svg" width="82.377" height="78.629" viewBox="0 0 82.377 78.629">
    <g id="Grupo_47" data-name="Grupo 47" transform="translate(0.5 0.5)">
        <path id="Trazado_73" data-name="Trazado 73" d="M78.229,51.1H4.348A3.794,3.794,0,0,1,.6,47.348h0A3.794,3.794,0,0,1,4.348,43.6H78.229a3.794,3.794,0,0,1,3.748,3.748h0A3.794,3.794,0,0,1,78.229,51.1Z" transform="translate(-0.6 2.442)" fill="none" stroke="#000" stroke-width="1"/>
        <path id="Trazado_74" data-name="Trazado 74" d="M61.991,67.732H20.232A17.182,17.182,0,0,1,3.1,50.6H79.123A17.182,17.182,0,0,1,61.991,67.732Z" transform="translate(-0.423 2.937)" fill="none" stroke="#000" stroke-width="1"/>
        <path id="Trazado_75" data-name="Trazado 75" d="M28.483,12.6h7.5a4.3,4.3,0,0,1,4.283,4.283H24.2A4.3,4.3,0,0,1,28.483,12.6Z" transform="translate(1.07 0.249)" fill="none" stroke="#000" stroke-width="1"/>
        <path id="Trazado_76" data-name="Trazado 76" d="M10.2,45.571V10.237S10.2.6,21.978.6s11.778,9.637,11.778,9.637v3.212" transform="translate(0.079 -0.6)" fill="none" stroke="#000" stroke-width="1"/>
        <line id="Línea_37" data-name="Línea 37" y1="3.212" transform="translate(29.553 22.486)"/>
        <line id="Línea_38" data-name="Línea 38" y1="3.212" transform="translate(38.118 22.486)"/>
        <line id="Línea_39" data-name="Línea 39" y1="3.212" transform="translate(33.835 26.769)"/>
        <line id="Línea_40" data-name="Línea 40" y1="3.212" transform="translate(33.835 38.547)"/>
        <line id="Línea_41" data-name="Línea 41" y1="2.141" transform="translate(33.835 21.415)"/>
        <line id="Línea_42" data-name="Línea 42" y1="2.141" transform="translate(29.553 28.91)"/>
        <line id="Línea_43" data-name="Línea 43" y1="2.141" transform="translate(38.118 28.91)"/>
        <line id="Línea_44" data-name="Línea 44" y1="3.212" transform="translate(29.553 34.264)"/>
        <line id="Línea_45" data-name="Línea 45" y1="3.212" transform="translate(38.118 34.264)"/>
        <line id="Línea_46" data-name="Línea 46" y1="2.141" transform="translate(33.835 33.193)"/>
        <g id="Grupo_46" data-name="Grupo 46" transform="translate(17.453 70.669)">
            <path id="Trazado_77" data-name="Trazado 77" d="M16.9,73.56h3.533l4.5-6.96H18.613Z" transform="translate(-16.9 -66.6)" fill="none" stroke="#000" stroke-width="1"/>
            <path id="Trazado_78" data-name="Trazado 78" d="M60.831,73.56H57.3L52.8,66.6h6.317Z" transform="translate(-14.36 -66.6)" fill="none" stroke="#000" stroke-width="1"/>
        </g>
    </g>
</svg>
