<svg xmlns="http://www.w3.org/2000/svg" width="73.689" height="71.902" viewBox="0 0 73.689 71.902">
    <g id="Grupo_50" data-name="Grupo 50" transform="translate(0.6 0.847)">
        <path id="Trazado_79" data-name="Trazado 79" d="M50.413,67.1H26.856C20.325,67.1,3.3,59.712,3.3,56.5H72.9C72.9,59.712,56.944,67.1,50.413,67.1Z" transform="translate(-0.409 3.355)" fill="none" stroke="#14202d" stroke-linecap="round" stroke-linejoin="round" stroke-miterlimit="10" stroke-width="1.2"/>
        <g id="Grupo_48" data-name="Grupo 48" transform="translate(0 28.482)">
            <path id="Trazado_80" data-name="Trazado 80" d="M52.852,58.466C59.919,52.041,65.38,40.691,67.414,27.2H10.558c.214,1.5.535,2.891.75,4.283C5.311,32.018.6,35.98.6,40.8c0,5.14,5.461,9.315,12.206,9.315a15.026,15.026,0,0,0,5.032-.857,40.778,40.778,0,0,0,7.281,9.315H52.852Z" transform="translate(-0.6 -27.2)" fill="none" stroke="#14202d" stroke-linecap="round" stroke-linejoin="round" stroke-miterlimit="10" stroke-width="1.2"/>
            <path id="Trazado_81" data-name="Trazado 81" d="M12.24,36.2c-2.677,0-5.14,1.606-5.14,3.641,0,2.141,2.463,3.962,5.247,3.962a5.948,5.948,0,0,0,2.463-.535A54.228,54.228,0,0,1,12.24,36.2Z" transform="translate(-0.14 -26.563)" fill="none" stroke="#14202d" stroke-linecap="round" stroke-linejoin="round" stroke-miterlimit="10" stroke-width="1.2"/>
        </g>
        <g id="Grupo_49" data-name="Grupo 49" transform="translate(24.841 0)">
            <path id="Trazado_82" data-name="Trazado 82" d="M23.8.6c3.212,3.641,3.641,6.317,3.426,8.138-.428,2.891-2.677,3.962-3.105,7.174a9.778,9.778,0,0,0,2.034,6.746" transform="translate(-23.8 -0.6)" fill="none" stroke="#14202d" stroke-linecap="round" stroke-linejoin="round" stroke-miterlimit="10" stroke-width="1.2"/>
            <path id="Trazado_83" data-name="Trazado 83" d="M33.2.6c3.212,3.641,3.641,6.317,3.426,8.138-.428,2.891-2.677,3.962-3.105,7.174a9.778,9.778,0,0,0,2.034,6.746" transform="translate(-23.135 -0.6)" fill="none" stroke="#14202d" stroke-linecap="round" stroke-linejoin="round" stroke-miterlimit="10" stroke-width="1.2"/>
            <path id="Trazado_84" data-name="Trazado 84" d="M42.6.6c3.212,3.641,3.641,6.317,3.426,8.138-.428,2.891-2.677,3.962-3.105,7.174a9.778,9.778,0,0,0,2.034,6.746" transform="translate(-22.47 -0.6)" fill="none" stroke="#14202d" stroke-linecap="round" stroke-linejoin="round" stroke-miterlimit="10" stroke-width="1.2"/>
        </g>
    </g>
</svg>
