<svg xmlns="http://www.w3.org/2000/svg" width="1258.518" height="301.648" viewBox="0 0 1258.518 301.648">
    <g id="Grupo_83" data-name="Grupo 83" transform="translate(1364.138 -1370.352)" opacity="0.593">
        <path id="Trazado_26" data-name="Trazado 26" d="M867.352,708.214,807.4,549.5,747.19,708.214l-19.811-9.681L807.4,487.6,887.163,698.24Z" transform="translate(-1870.93 956.451)" fill="#fff"/>
        <path id="Trazado_29" data-name="Trazado 29" d="M1034.95,694.73l18.768-41.95L1037.3,616.7l16.421-36.67L1037.3,543.647l23.719-52.805,19.55,10.855-18.506,42.246,16.16,36.084L1061.8,616.7l16.421,36.084L1054.5,705.585Z" transform="translate(-1621.221 959.08)" fill="#fff"/>
        <path id="Trazado_30" data-name="Trazado 30" d="M1174.7,702.318a81.937,81.937,0,0,1-36.23-8.215,91.836,91.836,0,0,1-29.976-22.589,108.612,108.612,0,0,1-20.072-33.15h.263a116.45,116.45,0,0,1-7.559-41.072,112.553,112.553,0,0,1,7.559-40.778h-.263a112.648,112.648,0,0,1,8.733-17.747A139.334,139.334,0,0,1,1108.5,522.78a107.038,107.038,0,0,1,29.976-22.3,91.038,91.038,0,0,1,17.595-6.307,79.42,79.42,0,0,1,42.878,1.614,97.793,97.793,0,0,1,22.676,10.853q21.114,14.084,35.971,42.246l-17.986,12.027q-10.945-21.12-28.28-33.15T1174.7,515.737a63.675,63.675,0,0,0-28.149,6.456,73.5,73.5,0,0,0-23.069,17.454,83.731,83.731,0,0,0-15.51,25.964,90.8,90.8,0,0,0,0,63.513,84.106,84.106,0,0,0,15.51,25.816,73.422,73.422,0,0,0,23.069,17.455,63.625,63.625,0,0,0,28.149,6.454q19.288,0,36.493-11.882t28.151-32.71l17.985,12.029a115.6,115.6,0,0,1-16.291,24.641,85.567,85.567,0,0,1-42.227,27.724A81.094,81.094,0,0,1,1174.7,702.318Zm11.73-104.145a14.484,14.484,0,0,1-3.649,9.974,11.616,11.616,0,0,1-17.726,0,15.457,15.457,0,0,1,0-19.949,11.615,11.615,0,0,1,17.726,0A14.5,14.5,0,0,1,1186.434,598.174Z" transform="translate(-1583.729 960.001)" fill="#fff"/>
        <path id="Trazado_31" data-name="Trazado 31" d="M1290.179,738.893a85.6,85.6,0,0,1-37.013-8.509v.294a96.408,96.408,0,0,1-16.03-9.974,112.523,112.523,0,0,1-14.468-13.2,121.163,121.163,0,0,1-11.728-16.281,116.516,116.516,0,0,1-8.864-18.043h.26a118.07,118.07,0,0,1-7.559-41.657,116.3,116.3,0,0,1,2.085-21.416,132.11,132.11,0,0,1,5.474-20.536,122.949,122.949,0,0,1,8.864-18.188,101.981,101.981,0,0,1,11.467-15.841,97.692,97.692,0,0,1,30.5-23.176,85.326,85.326,0,0,1,74.287,0,95.618,95.618,0,0,1,16.291,10.268,102.957,102.957,0,0,1,13.946,12.908,110.346,110.346,0,0,1,11.469,15.694,115.261,115.261,0,0,1,9.123,18.334,128.18,128.18,0,0,1,5.6,20.389,116.739,116.739,0,0,1,1.955,21.563,115.076,115.076,0,0,1-1.955,21.27,127.846,127.846,0,0,1-5.6,20.387,111.258,111.258,0,0,1-20.592,34.324,95.014,95.014,0,0,1-14.075,12.908,101.617,101.617,0,0,1-16.162,9.974,87.606,87.606,0,0,1-18.115,6.307A84.759,84.759,0,0,1,1290.179,738.893Zm0-190.1a63.021,63.021,0,0,0-28.412,6.6,77.509,77.509,0,0,0-23.328,17.749,82.6,82.6,0,0,0-15.771,26.256,89.77,89.77,0,0,0-5.733,32.123,88.563,88.563,0,0,0,5.733,31.976,84.68,84.68,0,0,0,15.771,26.256,74.373,74.373,0,0,0,23.328,17.749,64.176,64.176,0,0,0,28.412,6.454,65.025,65.025,0,0,0,28.542-6.454,72.533,72.533,0,0,0,23.328-17.749A88.224,88.224,0,0,0,1357.82,663.5a86.816,86.816,0,0,0,5.865-31.976,88,88,0,0,0-5.865-32.123,85.958,85.958,0,0,0-15.771-26.256,75.506,75.506,0,0,0-23.328-17.749A63.852,63.852,0,0,0,1290.179,548.793Zm-12.772-46.128L1264.374,488l35.449-41.07,13.294,14.08Z" transform="translate(-1491.461 923.426)" fill="#fff"/>
        <path id="Trazado_35" data-name="Trazado 35" d="M835.419,605.231l21.895-12.7v26.885l-21.895,10.95Z" transform="translate(-1783.215 1041.637)" fill="#fff"/>
        <path id="Trazado_36" data-name="Trazado 36" d="M2211.731,1288.4h26.914l59.517,84.733,60.53-84.733h28.133l-74.138,105.221,74.138,105.674h-28.133l-60.53-85.655-59.517,85.655h-29.783l75.25-105.674Z" transform="translate(-3573 156.327)" fill="#fff"/>
        <path id="Trazado_37" data-name="Trazado 37" d="M2424.647,1513.5l21.865-10.993V1353.248l117.7,160.256V1292.949h-22.931v151.093l-116.638-161.9V1513.5" transform="translate(-3372.443 158.496)" fill="#fff"/>
        <path id="Trazado_38" data-name="Trazado 38" d="M2527.794,1288.4H2676.7v24.136H2612.47v186.817h-22.135V1312.538h-62.541Z" transform="translate(-3288.701 163.575)" fill="#fff"/>
        <path id="Trazado_26-2" data-name="Trazado 26" d="M867.352,708.214,807.4,549.5,747.19,708.214l-19.811-9.681L807.4,487.6,887.163,698.24Z" transform="translate(-1870.93 956.451)" fill="#fff"/>
        <path id="Trazado_29-2" data-name="Trazado 29" d="M1034.95,694.73l18.768-41.95L1037.3,616.7l16.421-36.67L1037.3,543.647l23.719-52.805,19.55,10.855-18.506,42.246,16.16,36.084L1061.8,616.7l16.421,36.084L1054.5,705.585Z" transform="translate(-1621.221 959.08)" fill="#fff"/>
        <path id="Trazado_30-2" data-name="Trazado 30" d="M1174.7,702.318a81.937,81.937,0,0,1-36.23-8.215,91.836,91.836,0,0,1-29.976-22.589,108.612,108.612,0,0,1-20.072-33.15h.263a116.45,116.45,0,0,1-7.559-41.072,112.553,112.553,0,0,1,7.559-40.778h-.263a112.648,112.648,0,0,1,8.733-17.747A139.334,139.334,0,0,1,1108.5,522.78a107.038,107.038,0,0,1,29.976-22.3,91.038,91.038,0,0,1,17.595-6.307,79.42,79.42,0,0,1,42.878,1.614,97.793,97.793,0,0,1,22.676,10.853q21.114,14.084,35.971,42.246l-17.986,12.027q-10.945-21.12-28.28-33.15T1174.7,515.737a63.675,63.675,0,0,0-28.149,6.456,73.5,73.5,0,0,0-23.069,17.454,83.731,83.731,0,0,0-15.51,25.964,90.8,90.8,0,0,0,0,63.513,84.106,84.106,0,0,0,15.51,25.816,73.422,73.422,0,0,0,23.069,17.455,63.625,63.625,0,0,0,28.149,6.454q19.288,0,36.493-11.882t28.151-32.71l17.985,12.029a115.6,115.6,0,0,1-16.291,24.641,85.567,85.567,0,0,1-42.227,27.724A81.094,81.094,0,0,1,1174.7,702.318Zm11.73-104.145a14.484,14.484,0,0,1-3.649,9.974,11.616,11.616,0,0,1-17.726,0,15.457,15.457,0,0,1,0-19.949,11.615,11.615,0,0,1,17.726,0A14.5,14.5,0,0,1,1186.434,598.174Z" transform="translate(-1583.729 960.001)" fill="#fff"/>
        <path id="Trazado_31-2" data-name="Trazado 31" d="M1290.179,738.893a85.6,85.6,0,0,1-37.013-8.509v.294a96.408,96.408,0,0,1-16.03-9.974,112.523,112.523,0,0,1-14.468-13.2,121.163,121.163,0,0,1-11.728-16.281,116.516,116.516,0,0,1-8.864-18.043h.26a118.07,118.07,0,0,1-7.559-41.657,116.3,116.3,0,0,1,2.085-21.416,132.11,132.11,0,0,1,5.474-20.536,122.949,122.949,0,0,1,8.864-18.188,101.981,101.981,0,0,1,11.467-15.841,97.692,97.692,0,0,1,30.5-23.176,85.326,85.326,0,0,1,74.287,0,95.618,95.618,0,0,1,16.291,10.268,102.957,102.957,0,0,1,13.946,12.908,110.346,110.346,0,0,1,11.469,15.694,115.261,115.261,0,0,1,9.123,18.334,128.18,128.18,0,0,1,5.6,20.389,116.739,116.739,0,0,1,1.955,21.563,115.076,115.076,0,0,1-1.955,21.27,127.846,127.846,0,0,1-5.6,20.387,111.258,111.258,0,0,1-20.592,34.324,95.014,95.014,0,0,1-14.075,12.908,101.617,101.617,0,0,1-16.162,9.974,87.606,87.606,0,0,1-18.115,6.307A84.759,84.759,0,0,1,1290.179,738.893Zm0-190.1a63.021,63.021,0,0,0-28.412,6.6,77.509,77.509,0,0,0-23.328,17.749,82.6,82.6,0,0,0-15.771,26.256,89.77,89.77,0,0,0-5.733,32.123,88.563,88.563,0,0,0,5.733,31.976,84.68,84.68,0,0,0,15.771,26.256,74.373,74.373,0,0,0,23.328,17.749,64.176,64.176,0,0,0,28.412,6.454,65.025,65.025,0,0,0,28.542-6.454,72.533,72.533,0,0,0,23.328-17.749A88.224,88.224,0,0,0,1357.82,663.5a86.816,86.816,0,0,0,5.865-31.976,88,88,0,0,0-5.865-32.123,85.958,85.958,0,0,0-15.771-26.256,75.506,75.506,0,0,0-23.328-17.749A63.852,63.852,0,0,0,1290.179,548.793Zm-12.772-46.128L1264.374,488l35.449-41.07,13.294,14.08Z" transform="translate(-1491.461 923.426)" fill="#fff"/>
        <path id="Trazado_35-2" data-name="Trazado 35" d="M835.419,605.231l21.895-12.7v26.885l-21.895,10.95Z" transform="translate(-1783.215 1041.637)" fill="#fff"/>
        <path id="Trazado_36-2" data-name="Trazado 36" d="M2211.731,1288.4h26.914l59.517,84.733,60.53-84.733h28.133l-74.138,105.221,74.138,105.674h-28.133l-60.53-85.655-59.517,85.655h-29.783l75.25-105.674Z" transform="translate(-3573 156.327)" fill="#fff"/>
        <path id="Trazado_37-2" data-name="Trazado 37" d="M2424.647,1513.5l21.865-10.993V1353.248l117.7,160.256V1292.949h-22.931v151.093l-116.638-161.9V1513.5" transform="translate(-3372.443 158.496)" fill="#fff"/>
        <path id="Trazado_38-2" data-name="Trazado 38" d="M2527.794,1288.4H2676.7v24.136H2612.47v186.817h-22.135V1312.538h-62.541Z" transform="translate(-3288.701 163.575)" fill="#fff"/>
    </g>
</svg>
