<svg xmlns="http://www.w3.org/2000/svg" width="694.594" height="398.789" viewBox="0 0 694.594 398.789">
    <g id="Grupo_145" data-name="Grupo 145" transform="translate(1146.138 -538)">
        <g id="Grupo_78" data-name="Grupo 78" transform="translate(-3372 -911)">
            <path id="Trazado_39" data-name="Trazado 39" d="M-80.112,0h-4V-17.09H-95.908V0h-4V-34.448h4v13.843h11.792V-34.448h4Zm26.044-35.107a9.94,9.94,0,0,1,8.826,4.578q3.04,4.578,3.04,13.318,0,8.691-3.027,13.281A9.925,9.925,0,0,1-54.068.659a9.917,9.917,0,0,1-8.8-4.578q-3.04-4.578-3.04-13.293t3.027-13.306A9.9,9.9,0,0,1-54.068-35.107Zm0,32.251q7.617,0,7.617-14.355,0-14.38-7.617-14.38-3.711,0-5.652,3.723t-1.941,10.657q0,7.007,1.929,10.681A6.108,6.108,0,0,0-54.068-2.856Zm43.4-27.783a18.079,18.079,0,0,0-5.835-1.05,8.451,8.451,0,0,0-5.09,1.428A4.725,4.725,0,0,0-23.557-26.2q0,3.125,5.151,5.493,3.809,1.758,5.042,2.441a12.639,12.639,0,0,1,2.5,1.88,9.311,9.311,0,0,1,2.039,2.82,8.422,8.422,0,0,1,.769,3.65,9.519,9.519,0,0,1-3.381,7.8A12.189,12.189,0,0,1-19.406.659,16.505,16.505,0,0,1-27.194-1.1l.83-3.442A17.068,17.068,0,0,0-19.5-2.759a8.127,8.127,0,0,0,5.481-1.77A6.078,6.078,0,0,0-11.96-9.4,5.853,5.853,0,0,0-13.3-13.293a14.471,14.471,0,0,0-4.956-3.259q-3.711-1.709-4.8-2.332a10.062,10.062,0,0,1-2.161-1.721,8.029,8.029,0,0,1-1.66-2.466,7.482,7.482,0,0,1-.586-2.979,7.966,7.966,0,0,1,3.076-6.665A12.307,12.307,0,0,1-16.6-35.107a23.014,23.014,0,0,1,6.836,1.05ZM30.661-31.2H20.041V0H16.062V-31.2H5.393v-3.247H30.661ZM67.716,0h-4.2L59.708-12.061H48.4L44.547,0H40.4L51.651-34.448h4.81ZM58.561-15.552,54.044-29.81,49.552-15.552ZM100.01,0H81.26V-34.448h4V-3.491H100.01Z" transform="translate(2587.812 1845.63)" fill="#663419" stroke="#663419" stroke-width="3"/>
            <path id="Trazado_20" data-name="Trazado 20" d="M1067.064,656.879l14.412,12.557,14.408-12.557,14.413,12.557,14.409-12.557,14.419,12.557,14.419-12.557" transform="translate(1630.228 1165.426)" fill="none" stroke="#36553d" stroke-linecap="round" stroke-linejoin="round" stroke-width="3"/>
            <path id="Trazado_21" data-name="Trazado 21" d="M1067.064,646.341l14.412,12.557,14.408-12.557L1110.3,658.9l14.409-12.557,14.419,12.557,14.419-12.557" transform="translate(1630.228 1165.426)" fill="none" stroke="#36553d" stroke-linecap="round" stroke-linejoin="round" stroke-width="3"/>
            <path id="Trazado_22" data-name="Trazado 22" d="M766.456,656.879l14.412,12.557,14.408-12.557,14.413,12.557L824.1,656.879l14.419,12.557,14.419-12.557" transform="translate(1611.228 1165.426)" fill="none" stroke="#36553d" stroke-linecap="round" stroke-linejoin="round" stroke-width="3"/>
            <path id="Trazado_23" data-name="Trazado 23" d="M766.456,646.341,780.869,658.9l14.408-12.557L809.69,658.9,824.1,646.341,838.518,658.9l14.419-12.557" transform="translate(1611.228 1165.426)" fill="none" stroke="#36553d" stroke-linecap="round" stroke-linejoin="round" stroke-width="3"/>
            <path id="Trazado_26" data-name="Trazado 26" d="M804.632,609.362l-33.088-87.594-33.231,87.594-10.934-5.343L771.544,487.6l44.022,116.253Z" transform="translate(1620.228 1165.426)" fill="#36553d"/>
            <path id="Trazado_29" data-name="Trazado 29" d="M1034.95,603.371l10.358-23.153-9.063-19.915,9.063-20.239-9.063-20.078,13.091-29.144,10.79,5.991-10.214,23.316,8.919,19.915-9.063,20.239,9.063,19.915-13.091,29.144Z" transform="translate(1620.228 1165.426)" fill="#36553d"/>
            <path id="Trazado_30" data-name="Trazado 30" d="M1132.775,608.067a45.222,45.222,0,0,1-20-4.534,50.685,50.685,0,0,1-16.544-12.467,59.945,59.945,0,0,1-11.078-18.3h.145a64.27,64.27,0,0,1-4.172-22.668A62.119,62.119,0,0,1,1085.3,527.6h-.145a62.171,62.171,0,0,1,4.82-9.795,76.882,76.882,0,0,1,6.258-8.824,59.075,59.075,0,0,1,16.544-12.306,50.243,50.243,0,0,1,9.711-3.481,43.833,43.833,0,0,1,23.665.891,53.972,53.972,0,0,1,12.515,5.99q11.653,7.773,19.853,23.316l-9.927,6.638a49.4,49.4,0,0,0-15.608-18.3,34.733,34.733,0,0,0-35.749-3.076,40.565,40.565,0,0,0-12.732,9.633,46.213,46.213,0,0,0-8.56,14.33,50.112,50.112,0,0,0,0,35.054,46.42,46.42,0,0,0,8.56,14.248,40.523,40.523,0,0,0,12.732,9.634,34.809,34.809,0,0,0,35.677-3,49.245,49.245,0,0,0,15.537-18.053l9.926,6.639a63.8,63.8,0,0,1-8.991,13.6,47.226,47.226,0,0,1-23.306,15.3A44.759,44.759,0,0,1,1132.775,608.067Zm6.474-57.479a7.994,7.994,0,0,1-2.014,5.505,6.411,6.411,0,0,1-9.783,0,8.53,8.53,0,0,1,0-11.01,6.411,6.411,0,0,1,9.783,0A8,8,0,0,1,1139.249,550.588Z" transform="translate(1620.228 1165.426)" fill="#36553d"/>
            <path id="Trazado_31" data-name="Trazado 31" d="M1247.431,608.067a47.242,47.242,0,0,1-20.428-4.7v.162a53.217,53.217,0,0,1-8.847-5.505,62.106,62.106,0,0,1-7.985-7.286,66.867,66.867,0,0,1-6.473-8.986,64.3,64.3,0,0,1-4.892-9.958h.144a65.163,65.163,0,0,1-4.172-22.991,64.181,64.181,0,0,1,1.151-11.82,72.894,72.894,0,0,1,3.021-11.334,67.836,67.836,0,0,1,4.892-10.038,56.282,56.282,0,0,1,6.329-8.743A53.918,53.918,0,0,1,1227,494.081a47.093,47.093,0,0,1,41,0,52.776,52.776,0,0,1,8.991,5.667,56.824,56.824,0,0,1,7.7,7.124,60.9,60.9,0,0,1,6.33,8.662,63.607,63.607,0,0,1,5.035,10.119,70.747,70.747,0,0,1,3.093,11.253,64.43,64.43,0,0,1,1.079,11.9,63.513,63.513,0,0,1-1.079,11.739,70.561,70.561,0,0,1-3.093,11.252,61.4,61.4,0,0,1-11.365,18.944,52.448,52.448,0,0,1-7.768,7.124,56.084,56.084,0,0,1-8.92,5.5,48.347,48.347,0,0,1-10,3.481A46.78,46.78,0,0,1,1247.431,608.067Zm0-104.919a34.782,34.782,0,0,0-15.681,3.643,42.778,42.778,0,0,0-12.875,9.8,45.584,45.584,0,0,0-8.7,14.491,49.545,49.545,0,0,0-3.164,17.729,48.879,48.879,0,0,0,3.164,17.648,46.735,46.735,0,0,0,8.7,14.491,41.047,41.047,0,0,0,12.875,9.8,35.42,35.42,0,0,0,15.681,3.562,35.888,35.888,0,0,0,15.753-3.562,40.03,40.03,0,0,0,12.875-9.8,48.689,48.689,0,0,0,8.7-14.491A47.912,47.912,0,0,0,1288,548.807a48.563,48.563,0,0,0-3.237-17.729,47.439,47.439,0,0,0-8.7-14.491,41.671,41.671,0,0,0-12.875-9.8A35.24,35.24,0,0,0,1247.431,503.148Zm-7.049-25.459-7.193-8.1,19.565-22.667,7.337,7.771Z" transform="translate(1620.228 1165.426)" fill="#36553d"/>
            <path id="Trazado_35" data-name="Trazado 35" d="M835.419,599.539l12.084-7.011v14.838l-12.084,6.043Z" transform="translate(1620.228 1165.426)" fill="#36553d"/>
            <path id="Trazado_36" data-name="Trazado 36" d="M2210.445,1288.4H2225.3l32.848,46.766,33.407-46.766h15.527l-40.918,58.073,40.918,58.323h-15.527l-33.407-47.274L2225.3,1404.8h-16.438l41.532-58.323Z" transform="translate(17 365)" fill="#36553d"/>
            <path id="Trazado_37" data-name="Trazado 37" d="M2424.647,1409.836l12.068-6.067v-82.38l64.963,88.448V1288.109h-12.656v83.39l-64.375-89.352v127.689" transform="translate(31 369)" fill="#36553d"/>
            <path id="Trazado_38" data-name="Trazado 38" d="M2527.794,1288.4h82.183v13.321h-35.449V1404.83h-12.217V1301.723h-34.517Z" transform="translate(31 369)" fill="#36553d"/>
        </g>
        <g id="Grupo_143" data-name="Grupo 143" transform="translate(-879.827 634.959)">
            <g id="Grupo_13" data-name="Grupo 13" transform="translate(0)">
                <g id="Grupo_11" data-name="Grupo 11">
                    <line id="Línea_1" data-name="Línea 1" y1="81.627" transform="translate(20.331)" fill="none" stroke="#36553d" stroke-linecap="round" stroke-miterlimit="10" stroke-width="6"/>
                    <line id="Línea_2" data-name="Línea 2" y1="19.51" x2="19.51" fill="none" stroke="#36553d" stroke-linecap="round" stroke-miterlimit="10" stroke-width="6"/>
                    <line id="Línea_3" data-name="Línea 3" y1="19.51" x2="19.51" transform="translate(0 16.522)" fill="none" stroke="#36553d" stroke-linecap="round" stroke-miterlimit="10" stroke-width="6"/>
                    <line id="Línea_4" data-name="Línea 4" y1="19.51" x2="19.51" transform="translate(0 33.044)" fill="none" stroke="#36553d" stroke-linecap="round" stroke-miterlimit="10" stroke-width="6"/>
                    <line id="Línea_5" data-name="Línea 5" x1="19.51" y1="19.51" transform="translate(21.095)" fill="none" stroke="#36553d" stroke-linecap="round" stroke-miterlimit="10" stroke-width="6"/>
                    <line id="Línea_6" data-name="Línea 6" x1="19.51" y1="19.51" transform="translate(21.095 16.522)" fill="none" stroke="#36553d" stroke-linecap="round" stroke-miterlimit="10" stroke-width="6"/>
                    <line id="Línea_7" data-name="Línea 7" x1="19.51" y1="19.51" transform="translate(21.095 33.044)" fill="none" stroke="#36553d" stroke-linecap="round" stroke-miterlimit="10" stroke-width="6"/>
                </g>
                <g id="Grupo_12" data-name="Grupo 12" transform="translate(106.678)">
                    <line id="Línea_8" data-name="Línea 8" y1="81.627" transform="translate(20.331)" fill="none" stroke="#36553d" stroke-linecap="round" stroke-miterlimit="10" stroke-width="6"/>
                    <line id="Línea_9" data-name="Línea 9" y1="19.51" x2="19.51" fill="none" stroke="#36553d" stroke-linecap="round" stroke-miterlimit="10" stroke-width="6"/>
                    <line id="Línea_10" data-name="Línea 10" y1="19.51" x2="19.51" transform="translate(0 16.522)" fill="none" stroke="#36553d" stroke-linecap="round" stroke-miterlimit="10" stroke-width="6"/>
                    <line id="Línea_11" data-name="Línea 11" y1="19.51" x2="19.51" transform="translate(0 33.044)" fill="none" stroke="#36553d" stroke-linecap="round" stroke-miterlimit="10" stroke-width="6"/>
                    <line id="Línea_12" data-name="Línea 12" x1="19.51" y1="19.51" transform="translate(21.095)" fill="none" stroke="#36553d" stroke-linecap="round" stroke-miterlimit="10" stroke-width="6"/>
                    <line id="Línea_13" data-name="Línea 13" x1="19.51" y1="19.51" transform="translate(21.095 16.522)" fill="none" stroke="#36553d" stroke-linecap="round" stroke-miterlimit="10" stroke-width="6"/>
                    <line id="Línea_14" data-name="Línea 14" x1="19.51" y1="19.51" transform="translate(21.095 33.044)" fill="none" stroke="#36553d" stroke-linecap="round" stroke-miterlimit="10" stroke-width="6"/>
                </g>
            </g>
            <path id="Trazado_24" data-name="Trazado 24" d="M984.973,465.611,965.462,446.1l-19.51,19.511" transform="translate(-891.82 -397.218)" fill="none" stroke="#36553d" stroke-linecap="round" stroke-miterlimit="10" stroke-width="6"/>
        </g>
        <g id="Grupo_144" data-name="Grupo 144" transform="translate(-1025.077 538)">
            <g id="Grupo_1" data-name="Grupo 1" transform="translate(0)">
                <path id="Trazado_1" data-name="Trazado 1" d="M772.126,450.283l21.857,11.979c2.024,1.11,3.187.718,3.877-.541s.395-2.449-1.628-3.557l-21.858-11.979,2.051-3.738L798,454.269c4.533,2.484,6.021,5.918,3.891,9.8s-5.825,4.476-10.358,1.991l-21.574-11.823Z" transform="translate(-769.957 -320.288)" fill="#663419"/>
                <path id="Trazado_2" data-name="Trazado 2" d="M792.028,434.875l19.066,13.569-2.353,3.308-26.325-18.734,3.281-4.611,18.443,7.437-15.758-11.213,2.329-3.275,26.325,18.732-2.685,3.776Z" transform="translate(-768.04 -323.532)" fill="#663419"/>
                <path id="Trazado_3" data-name="Trazado 3" d="M820.541,408.091l4.448-4.308L828.2,407.1l-4.448,4.309,6.583,6.791,5.6-5.422,3.211,3.314-8.836,8.561-22.48-23.194,8.837-8.561,3.211,3.313-5.6,5.423Z" transform="translate(-764.132 -327.91)" fill="#663419"/>
                <path id="Trazado_4" data-name="Trazado 4" d="M829.234,381.417c3.463-2.694,7.057-1.747,10.231,2.332l.624.8-3.365,2.618-.822-1.056c-1.417-1.822-2.6-2.01-3.736-1.128s-1.242,2.076.176,3.9c4.081,5.245,11.8.816,17.474,8.1,3.173,4.08,3.176,7.821-.319,10.54s-7.121,1.8-10.3-2.282l-1.219-1.566,3.366-2.619,1.417,1.822c1.418,1.822,2.64,1.923,3.772,1.042s1.335-2.091-.082-3.912c-4.082-5.247-11.8-.817-17.474-8.1C825.806,387.828,825.771,384.111,829.234,381.417Z" transform="translate(-761.241 -329.91)" fill="#663419"/>
                <path id="Trazado_5" data-name="Trazado 5" d="M859.45,371.283l2.2,3.578c2.706,4.405,2.291,7.964-1.553,10.324l-1.817,1.116,6.353,10.344-3.844,2.361-16.908-27.531L849.54,368C853.383,365.636,856.744,366.876,859.45,371.283Zm-9.313,1.763,5.725,9.322,1.817-1.116c1.223-.751,1.5-1.789.293-3.754l-2.536-4.13c-1.208-1.967-2.259-2.189-3.482-1.436Z" transform="translate(-758.586 -331.921)" fill="#663419"/>
                <path id="Trazado_6" data-name="Trazado 6" d="M890.617,382.839l-4.119,1.937-3.2-4.975-5.009,2.356,1.787,5.638-3.747,1.762-9.585-31.2,5.974-2.808Zm-13.673-4.9,3.933-1.85-8.915-13.864Z" transform="translate(-755.069 -333.655)" fill="#663419"/>
                <path id="Trazado_7" data-name="Trazado 7" d="M905.432,364.839l1.369,4.07c1.649,4.9.414,8.432-3.785,9.846s-7.318-.655-8.965-5.555l-5.359-15.926c-1.649-4.9-.413-8.432,3.785-9.844s7.318.654,8.967,5.555l1,2.975-4.043,1.36-1.1-3.28c-.736-2.188-1.871-2.732-3.232-2.274s-1.936,1.577-1.2,3.765l5.564,16.538c.736,2.188,1.856,2.687,3.217,2.229s1.951-1.533,1.215-3.72l-1.473-4.375Z" transform="translate(-751.801 -334.971)" fill="#663419"/>
                <path id="Trazado_8" data-name="Trazado 8" d="M909.281,342.8l4.391-1.028,7.371,31.451-4.393,1.028Z" transform="translate(-748.525 -335.774)" fill="#663419"/>
                <path id="Trazado_9" data-name="Trazado 9" d="M926.147,347.205c-.695-5.123,1.306-8.376,5.7-8.97s7.182,2.006,7.877,7.13l2.255,16.65c.694,5.122-1.307,8.374-5.7,8.97s-7.182-2.007-7.877-7.13Zm6.769,16.364c.309,2.287,1.321,3.035,2.744,2.842s2.2-1.183,1.888-3.47l-2.342-17.29c-.31-2.288-1.322-3.035-2.744-2.842s-2.2,1.183-1.889,3.47Z" transform="translate(-745.951 -336.331)" fill="#663419"/>
                <path id="Trazado_10" data-name="Trazado 10" d="M964.706,336.574l7.128.34c4.507.215,6.585,3.132,6.338,8.3l-.779,16.316c-.246,5.162-2.593,7.869-7.1,7.653l-7.128-.339Zm4.286,4.824-1.1,23.047,2.541.121c1.434.069,2.334-.72,2.443-3.025l.8-16.778c.111-2.3-.711-3.175-2.144-3.243Z" transform="translate(-740.237 -336.574)" fill="#663419"/>
                <path id="Trazado_11" data-name="Trazado 11" d="M992.083,352.669l6.115.984-.735,4.556-6.114-.983-1.506,9.341,7.695,1.237-.734,4.556-12.148-1.955,5.139-31.894,12.147,1.955-.734,4.555-7.694-1.237Z" transform="translate(-736.931 -336.276)" fill="#663419"/>
                <path id="Trazado_12" data-name="Trazado 12" d="M1027.491,346.977l4.259,1.487-9.137,26.146,7.008,2.447-1.524,4.357-11.266-3.935Z" transform="translate(-731.981 -334.974)" fill="#663419"/>
                <path id="Trazado_13" data-name="Trazado 13" d="M1048.168,354.806l4.108,1.865-13.36,29.418-4.108-1.865Z" transform="translate(-729.216 -333.769)" fill="#663419"/>
                <path id="Trazado_14" data-name="Trazado 14" d="M1071.463,375.23l-.576,1c-1.658,2.88-3.5,4.27-5.771,4.188,1.568,2.127,1.164,4.718-.539,7.678l-1.313,2.28c-2.487,4.32-5.848,5.474-9.759,3.224l-6.15-3.54,16.12-28,5.9,3.4C1073.429,367.787,1073.949,370.909,1071.463,375.23Zm-12.944,4.479-4.95,8.6,2.239,1.289c1.315.757,2.418.486,3.615-1.594l1.405-2.439c1.5-2.6,1.21-3.83-.566-4.853Zm6.563-11.4-4.26,7.4,1.529.879c1.457.839,2.76.63,4.05-1.61l.9-1.56c1.152-2,1.055-3.228-.332-4.026Z" transform="translate(-727.286 -332.654)" fill="#663419"/>
                <path id="Trazado_15" data-name="Trazado 15" d="M1080.373,388.64l4.988,3.672-2.736,3.718-4.988-3.673-5.609,7.62,6.276,4.619-2.736,3.718-9.909-7.295L1084.811,375l9.908,7.294-2.735,3.716-6.275-4.62Z" transform="translate(-724.47 -330.663)" fill="#663419"/>
                <path id="Trazado_16" data-name="Trazado 16" d="M1088.513,419.48a11.056,11.056,0,0,1,2.392-3.194l3.445-3.728c2.036-2.2,2.125-3.629.618-5.02l-1.144-1.058-8.926,9.66-3.314-3.062,21.924-23.724,5,4.62c3.435,3.174,3.251,6.334-.131,9.994l-1.723,1.863c-2.255,2.44-4.42,3.393-6.617,2.808.937,2.311-.181,4.608-2.468,7.082l-3.382,3.66a10.611,10.611,0,0,0-2.3,3.216Zm15.177-23.675-6.733,7.286,1.295,1.2c1.236,1.142,2.552,1.228,4.306-.67l2.161-2.339c1.567-1.694,1.743-2.912.567-4Z" transform="translate(-722.021 -328.455)" fill="#663419"/>
                <path id="Trazado_17" data-name="Trazado 17" d="M1120.093,405.613l9.142,10.53-3.486,3.024-3.091-3.562-20.917,18.148-2.957-3.406L1119.7,412.2l-3.093-3.562Z" transform="translate(-719.375 -325.954)" fill="#663419"/>
                <path id="Trazado_18" data-name="Trazado 18" d="M1117.088,453.056l-2.61-3.728,4.354-4-3.176-4.535-5.247,2.724-2.376-3.392,29.1-14.774,3.787,5.408Zm2.49-14.31,2.492,3.561,12.135-11.154Z" transform="translate(-717.952 -322.918)" fill="#663419"/>
                <path id="Trazado_19" data-name="Trazado 19" d="M1148.911,443.618l3.392,6.28c2.144,3.969.718,7.257-3.831,9.711l-14.377,7.76c-4.55,2.455-8.081,1.843-10.225-2.128l-3.391-6.279Zm-1.918,6.161-20.308,10.96,1.209,2.237c.682,1.264,1.822,1.627,3.854.531l14.784-7.979c2.031-1.1,2.352-2.248,1.671-3.512Z" transform="translate(-716.037 -320.108)" fill="#663419"/>
            </g>
        </g>
    </g>
</svg>
