<svg xmlns="http://www.w3.org/2000/svg" width="243.008" height="62.216" viewBox="0 0 243.008 62.216">
  <g id="Grupo_32" data-name="Grupo 32" transform="translate(-881.293 -63.352)">
    <path id="Trazado_39" data-name="Trazado 39" d="M-94.667-25.808h-1.061v-4.527h-3.124v4.527h-1.061v-9.125h1.061v3.667h3.124v-3.667h1.061Zm6.9-9.3a2.633,2.633,0,0,1,2.338,1.213,6.389,6.389,0,0,1,.805,3.528,6.4,6.4,0,0,1-.8,3.518,2.629,2.629,0,0,1-2.341,1.216A2.627,2.627,0,0,1-90.1-26.846a6.375,6.375,0,0,1-.805-3.521,6.413,6.413,0,0,1,.8-3.524A2.623,2.623,0,0,1-87.769-35.107Zm0,8.543q2.018,0,2.018-3.8t-2.018-3.809a1.619,1.619,0,0,0-1.5.986,6.234,6.234,0,0,0-.514,2.823,6.236,6.236,0,0,0,.511,2.829A1.618,1.618,0,0,0-87.769-26.565Zm11.5-7.359a4.789,4.789,0,0,0-1.546-.278,2.239,2.239,0,0,0-1.348.378,1.252,1.252,0,0,0-.521,1.077q0,.828,1.365,1.455,1.009.466,1.335.647a3.348,3.348,0,0,1,.663.5,2.466,2.466,0,0,1,.54.747,2.231,2.231,0,0,1,.2.967,2.521,2.521,0,0,1-.9,2.066,3.229,3.229,0,0,1-2.111.734A4.372,4.372,0,0,1-80.65-26.1l.22-.912a4.521,4.521,0,0,0,1.817.472,2.153,2.153,0,0,0,1.452-.469,1.61,1.61,0,0,0,.546-1.29,1.55,1.55,0,0,0-.356-1.031,3.833,3.833,0,0,0-1.313-.863q-.983-.453-1.271-.618a2.665,2.665,0,0,1-.572-.456,2.127,2.127,0,0,1-.44-.653,1.982,1.982,0,0,1-.155-.789,2.11,2.11,0,0,1,.815-1.765,3.26,3.26,0,0,1,2.063-.634,6.1,6.1,0,0,1,1.811.278Zm10.947-.149h-2.813v8.265h-1.054v-8.265h-2.826v-.86h6.693Zm9.815,8.265h-1.112L-57.632-29h-2.994l-1.022,3.195h-1.1l2.981-9.125h1.274Zm-2.425-4.119-1.2-3.777-1.19,3.777Zm10.979,4.119h-4.967v-9.125h1.061v8.2h3.906Z" transform="translate(1080.103 150.951)" fill="#663419" stroke="#663419" stroke-width="0.5"/>
    <path id="Trazado_20" data-name="Trazado 20" d="M1067.064,656.879l3.818,3.326,3.816-3.326,3.818,3.326,3.817-3.326,3.819,3.326,3.819-3.326" transform="translate(-31.408 -537.914)" fill="none" stroke="#36553d" stroke-linecap="round" stroke-linejoin="round" stroke-width="1"/>
    <path id="Trazado_21" data-name="Trazado 21" d="M1067.064,646.341l3.818,3.326,3.816-3.326,3.818,3.326,3.817-3.326,3.819,3.326,3.819-3.326" transform="translate(-31.408 -530.167)" fill="none" stroke="#36553d" stroke-linecap="round" stroke-linejoin="round" stroke-width="1"/>
    <path id="Trazado_22" data-name="Trazado 22" d="M766.456,656.879l3.818,3.326,3.816-3.326,3.818,3.326,3.817-3.326,3.819,3.326,3.819-3.326" transform="translate(184.541 -537.914)" fill="none" stroke="#36553d" stroke-linecap="round" stroke-linejoin="round" stroke-width="1"/>
    <path id="Trazado_23" data-name="Trazado 23" d="M766.456,646.341l3.818,3.326,3.816-3.326,3.818,3.326,3.817-3.326,3.819,3.326,3.819-3.326" transform="translate(184.541 -530.167)" fill="none" stroke="#36553d" stroke-linecap="round" stroke-linejoin="round" stroke-width="1"/>
    <g id="Grupo_27" data-name="Grupo 27" transform="translate(882 77.385)">
      <g id="Grupo_26" data-name="Grupo 26" transform="translate(0 0)">
        <line id="Línea_1" data-name="Línea 1" y1="24.535" transform="translate(6.111)" fill="none" stroke="#36553d" stroke-linecap="round" stroke-miterlimit="10" stroke-width="1"/>
        <line id="Línea_2" data-name="Línea 2" y1="5.864" x2="5.864" fill="none" stroke="#36553d" stroke-linecap="round" stroke-miterlimit="10" stroke-width="1"/>
        <line id="Línea_3" data-name="Línea 3" y1="5.864" x2="5.864" transform="translate(0 4.966)" fill="none" stroke="#36553d" stroke-linecap="round" stroke-miterlimit="10" stroke-width="1"/>
        <line id="Línea_4" data-name="Línea 4" y1="5.864" x2="5.864" transform="translate(0 9.932)" fill="none" stroke="#36553d" stroke-linecap="round" stroke-miterlimit="10" stroke-width="1"/>
        <line id="Línea_5" data-name="Línea 5" x1="5.864" y1="5.864" transform="translate(6.341)" fill="none" stroke="#36553d" stroke-linecap="round" stroke-miterlimit="10" stroke-width="1"/>
        <line id="Línea_6" data-name="Línea 6" x1="5.864" y1="5.864" transform="translate(6.341 4.966)" fill="none" stroke="#36553d" stroke-linecap="round" stroke-miterlimit="10" stroke-width="1"/>
        <line id="Línea_7" data-name="Línea 7" x1="5.864" y1="5.864" transform="translate(6.341 9.932)" fill="none" stroke="#36553d" stroke-linecap="round" stroke-miterlimit="10" stroke-width="1"/>
      </g>
    </g>
    <path id="Trazado_26" data-name="Trazado 26" d="M747.842,519.856l-8.765-23.2-8.8,23.2-2.9-1.415,11.7-30.836L750.738,518.4Z" transform="translate(215.651 -413.477)" fill="#36553d"/>
    <path id="Trazado_29" data-name="Trazado 29" d="M1034.95,520.649l2.744-6.133-2.4-5.275,2.4-5.361-2.4-5.318,3.467-7.72,2.858,1.587-2.706,6.176,2.363,5.275-2.4,5.361,2.4,5.275-3.468,7.72Z" transform="translate(-10.45 -415.857)" fill="#36553d"/>
    <path id="Trazado_30" data-name="Trazado 30" d="M1094.81,522.727a11.979,11.979,0,0,1-5.3-1.2,13.422,13.422,0,0,1-4.382-3.3,15.874,15.874,0,0,1-2.934-4.846h.038a17.024,17.024,0,0,1-1.105-6,16.455,16.455,0,0,1,1.105-5.961h-.038a16.485,16.485,0,0,1,1.277-2.594,20.354,20.354,0,0,1,1.658-2.337,15.647,15.647,0,0,1,4.382-3.26,13.315,13.315,0,0,1,2.572-.922,11.61,11.61,0,0,1,6.269.236,14.3,14.3,0,0,1,3.315,1.587,16.4,16.4,0,0,1,5.259,6.176l-2.629,1.758a13.086,13.086,0,0,0-4.134-4.846,9.2,9.2,0,0,0-9.469-.815,10.746,10.746,0,0,0-3.372,2.552,12.246,12.246,0,0,0-2.267,3.8,13.275,13.275,0,0,0,0,9.285,12.3,12.3,0,0,0,2.267,3.774,10.733,10.733,0,0,0,3.372,2.552,9.221,9.221,0,0,0,9.45-.794,13.043,13.043,0,0,0,4.115-4.782l2.629,1.759a16.9,16.9,0,0,1-2.382,3.6,12.51,12.51,0,0,1-6.173,4.053A11.855,11.855,0,0,1,1094.81,522.727Zm1.715-15.225a2.117,2.117,0,0,1-.534,1.458,1.7,1.7,0,0,1-2.591,0,2.26,2.26,0,0,1,0-2.916,1.7,1.7,0,0,1,2.591,0A2.12,2.12,0,0,1,1096.525,507.5Z" transform="translate(-44.398 -416.691)" fill="#36553d"/>
    <path id="Trazado_31" data-name="Trazado 31" d="M1208.725,489.609a12.514,12.514,0,0,1-5.411-1.244v.043a14.1,14.1,0,0,1-2.344-1.458,16.457,16.457,0,0,1-2.115-1.93,17.718,17.718,0,0,1-1.715-2.38,17.024,17.024,0,0,1-1.3-2.638h.038a17.26,17.26,0,0,1-1.105-6.09,17,17,0,0,1,.3-3.131,19.341,19.341,0,0,1,.8-3,17.985,17.985,0,0,1,1.3-2.659,14.922,14.922,0,0,1,1.677-2.316,14.283,14.283,0,0,1,4.458-3.388,12.475,12.475,0,0,1,10.86,0,13.988,13.988,0,0,1,2.382,1.5,15.046,15.046,0,0,1,2.039,1.887,16.135,16.135,0,0,1,1.677,2.294,16.84,16.84,0,0,1,1.334,2.68,18.725,18.725,0,0,1,.819,2.981,17.057,17.057,0,0,1,.286,3.152,16.814,16.814,0,0,1-.286,3.109,18.672,18.672,0,0,1-.819,2.98,16.264,16.264,0,0,1-3.01,5.018,13.894,13.894,0,0,1-2.057,1.887,14.866,14.866,0,0,1-2.363,1.458,12.8,12.8,0,0,1-2.648.922A12.393,12.393,0,0,1,1208.725,489.609Zm0-27.791a9.214,9.214,0,0,0-4.154.965,11.332,11.332,0,0,0-3.41,2.595,12.077,12.077,0,0,0-2.306,3.838,13.123,13.123,0,0,0-.838,4.7,12.946,12.946,0,0,0,.838,4.675,12.381,12.381,0,0,0,2.306,3.838,10.874,10.874,0,0,0,3.41,2.595,9.383,9.383,0,0,0,4.154.943,9.506,9.506,0,0,0,4.173-.943,10.6,10.6,0,0,0,3.41-2.595,12.9,12.9,0,0,0,2.306-3.838,12.69,12.69,0,0,0,.858-4.675,12.864,12.864,0,0,0-.858-4.7,12.567,12.567,0,0,0-2.306-3.838,11.035,11.035,0,0,0-3.41-2.595A9.335,9.335,0,0,0,1208.725,461.818Zm-1.867-6.744-1.905-2.144,5.182-6,1.943,2.058Z" transform="translate(-127.942 -383.574)" fill="#36553d"/>
    <path id="Trazado_35" data-name="Trazado 35" d="M835.419,594.385l3.2-1.857v3.93l-3.2,1.6Z" transform="translate(136.229 -490.609)" fill="#36553d"/>
    <path id="Trazado_36" data-name="Trazado 36" d="M2209.282,1288.4h3.934l8.7,12.387,8.849-12.387h4.113l-10.838,15.383,10.838,15.449h-4.113l-8.849-12.522-8.7,12.522h-4.354l11-15.449Z" transform="translate(-1298.08 -1214.177)" fill="#36553d"/>
    <path id="Trazado_37" data-name="Trazado 37" d="M2424.647,1315.969l3.2-1.607v-21.821l17.208,23.428v-32.244H2441.7v22.089l-17.052-23.668v33.823" transform="translate(-1452.999 -1208.518)" fill="#36553d"/>
    <path id="Trazado_38" data-name="Trazado 38" d="M2527.794,1288.4h21.769v3.529h-9.39v27.311h-3.236v-27.311h-9.143Z" transform="translate(-1528.824 -1213.117)" fill="#36553d"/>
    <g id="Grupo_28" data-name="Grupo 28" transform="translate(1111.388 77.385)">
      <g id="Grupo_26-2" data-name="Grupo 26" transform="translate(0 0)">
        <line id="Línea_1-2" data-name="Línea 1" y1="24.535" transform="translate(6.111)" fill="none" stroke="#36553d" stroke-linecap="round" stroke-miterlimit="10" stroke-width="1"/>
        <line id="Línea_2-2" data-name="Línea 2" y1="5.864" x2="5.864" fill="none" stroke="#36553d" stroke-linecap="round" stroke-miterlimit="10" stroke-width="1"/>
        <line id="Línea_3-2" data-name="Línea 3" y1="5.864" x2="5.864" transform="translate(0 4.966)" fill="none" stroke="#36553d" stroke-linecap="round" stroke-miterlimit="10" stroke-width="1"/>
        <line id="Línea_4-2" data-name="Línea 4" y1="5.864" x2="5.864" transform="translate(0 9.932)" fill="none" stroke="#36553d" stroke-linecap="round" stroke-miterlimit="10" stroke-width="1"/>
        <line id="Línea_5-2" data-name="Línea 5" x1="5.864" y1="5.864" transform="translate(6.341)" fill="none" stroke="#36553d" stroke-linecap="round" stroke-miterlimit="10" stroke-width="1"/>
        <line id="Línea_6-2" data-name="Línea 6" x1="5.864" y1="5.864" transform="translate(6.341 4.966)" fill="none" stroke="#36553d" stroke-linecap="round" stroke-miterlimit="10" stroke-width="1"/>
        <line id="Línea_7-2" data-name="Línea 7" x1="5.864" y1="5.864" transform="translate(6.341 9.932)" fill="none" stroke="#36553d" stroke-linecap="round" stroke-miterlimit="10" stroke-width="1"/>
      </g>
    </g>
  </g>
</svg>
