<svg xmlns="http://www.w3.org/2000/svg" width="29.606" height="24.237" viewBox="0 0 29.606 24.237">
    <g id="Grupo_31" data-name="Grupo 31" transform="translate(-1.284 -3.198)">
        <path id="Trazado_40" data-name="Trazado 40" d="M27.739,24.711a7.5,7.5,0,0,1-5.131,1.973H6.976c-6.583-.479-6.6-10.064,0-10.544h.07C3.241,5.512,16.251.269,21.72,6.88v.014a10.218,10.218,0,0,1,2.072,4.863,6.9,6.9,0,0,1,4.482,2.453A7.554,7.554,0,0,1,27.739,24.711Z" transform="translate(0)" fill="none" stroke="#000" stroke-linecap="round" stroke-linejoin="round" stroke-miterlimit="10" stroke-width="1.5"/>
        <path id="Trazado_41" data-name="Trazado 41" d="M7.944,14.444a5.472,5.472,0,0,0-2.354-.578m14.462-3.778a5.472,5.472,0,0,1,2.354-.578" transform="translate(1.457 2.275)" fill="none" stroke="#000" stroke-linecap="round" stroke-linejoin="round" stroke-miterlimit="10" stroke-width="1.5"/>
        <path id="Trazado_42" data-name="Trazado 42" d="M24.415,9.934a4.893,4.893,0,0,1-1.861,3.848,6.9,6.9,0,0,0-4.482-2.453A10.218,10.218,0,0,0,16,6.466V6.452A4.877,4.877,0,0,1,19.482,5,4.939,4.939,0,0,1,24.415,9.934Z" transform="translate(5.72 0.428)" fill="none" stroke="#000" stroke-linecap="round" stroke-linejoin="round" stroke-miterlimit="10" stroke-width="1.5"/>
    </g>
</svg>
