<svg width="30" height="23" xmlns="http://www.w3.org/2000/svg" xmlns:xlink="http://www.w3.org/1999/xlink" xmlns:svgjs="http://svgjs.com/svgjs" viewBox="142 74 30 23"><svg width="30" height="23" xmlns="http://www.w3.org/2000/svg" xmlns:xlink="http://www.w3.org/1999/xlink" xmlns:svgjs="http://svgjs.com/svgjs" viewBox="0.78 0 28.44 23" fill="none" stroke-miterlimit="100" stroke-linecap="round" stroke="#000" stroke-width="1.5" x="142" y="74"><svg xmlns="http://www.w3.org/2000/svg" xmlns:xlink="http://www.w3.org/1999/xlink" width="30" height="23" viewBox="1 0 28.105 22.729"><path paint-order="stroke fill markers" d="M26.705 20.755a7.494 7.494 0 0 1-5.13 1.974H5.941c-6.583-.48-6.597-10.065 0-10.544h.07C2.208 1.557 15.218-3.687 20.687 2.924v.014c.987 1.212 1.734 2.82 2.073 4.863a6.905 6.905 0 0 1 4.482 2.453c2.467 2.918 2.678 7.682-.536 10.501z"/></svg></svg><svg width="17" height="6" xmlns="http://www.w3.org/2000/svg" xmlns:xlink="http://www.w3.org/1999/xlink" xmlns:svgjs="http://svgjs.com/svgjs" viewBox="0 0.506 17 4.987" fill="none" stroke-miterlimit="100" stroke-linecap="round" stroke="#000" stroke-width="1.5" x="148" y="81"><svg xmlns="http://www.w3.org/2000/svg" xmlns:xlink="http://www.w3.org/1999/xlink" width="17" height="6" viewBox="0.013 0.829 16.816 4.933"><path paint-order="stroke fill markers" d="M2.367 5.763a5.472 5.472 0 0 0-2.354-.578l2.354.578m12.108-4.356A5.48 5.48 0 0 1 16.829.83l-2.354.578"/></svg></svg><svg width="10" height="10" xmlns="http://www.w3.org/2000/svg" xmlns:xlink="http://www.w3.org/1999/xlink" xmlns:svgjs="http://svgjs.com/svgjs" viewBox="0.209 0 9.583 10" fill="none" stroke-miterlimit="100" stroke-linecap="round" stroke="#000" stroke-width="1.5" x="162" y="75"><svg xmlns="http://www.w3.org/2000/svg" width="10" height="10" viewBox="0.686 0.472 8.415 8.782"><path paint-order="stroke fill markers" d="M9.102 5.406c0 1.55-.72 2.946-1.861 3.848A6.904 6.904 0 0 0 2.759 6.8C2.42 4.757 1.673 3.15.686 1.938v-.014A4.875 4.875 0 0 1 4.168.472a4.939 4.939 0 0 1 4.934 4.934z"/></svg></svg></svg>