<svg xmlns="http://www.w3.org/2000/svg" width="129.914" height="155.141" viewBox="0 0 129.914 155.141">
    <g id="pet_frendly-03" data-name="pet frendly-03" transform="translate(-16.778 -11.009)">
        <path id="Trazado_148" data-name="Trazado 148" d="M124.13,164.65H145s-.74-6.13-4.8-8.94-10.46-.68-10.17-7.06,1.75-14.91,6-27.68,6.59-32.32,2.13-44.52-8.32-17.61-8.32-17.61,3-7.84.39-13.26L122.1,51.1s-6.29-.39-7.94.29-10.93,5-12.58,5.32S98.42,58,98.23,58.94s1.16,11.61,3.67,14.9,5,3.58,4.55,5.13a27.59,27.59,0,0,1-12.1,16.26c-9.29,5.61-25.64,20.71-26,37.54s-.26,31.88-.26,31.88h44.2s2.19-1.23,2.19-4.71.13-24.46-2.32-31S104.52,98.32,92,85.42s-22.19-13.81-25.16-11-8.39,14.1-11.74,27.26-9.42,41.67-9.81,48.77a98,98,0,0,1-2,14.2h-25s-.52-10.52,10.71-15.1c0,0,.16-19.1.26-21.13S25,113.71,23.9,107.13s-2.8-18.29-2.71-26,2.68-17.81,6.94-23.23" fill="none" stroke="#14202d" stroke-miterlimit="10" stroke-width="3"/>
        <path id="Trazado_149" data-name="Trazado 149" d="M64.39,64.39s-3.14-8-2.86-12.65c0,0,18-7.09,20.11-12.9s1.59-12,1.2-13.16-2.66-2-2.66-2H67.65A11.51,11.51,0,0,1,61,18.58c-2.13-4-1.84-4.93-4.74-5.61S44,12.1,38.81,14.52s-9,6.67-12.1,14.22-3.87,14.91-3.48,18.87,2.71,9.87,7.54,11.66,10.94.83,12.63-4.4S45,42.29,43.4,39s-7.74-13-9.29-15.58a15.43,15.43,0,0,0-2.22-3.14" fill="none" stroke="#14202d" stroke-miterlimit="10" stroke-width="3"/>
    </g>
</svg>
