<svg xmlns="http://www.w3.org/2000/svg" width="83.326" height="59.77" viewBox="0 0 83.326 59.77">
    <g id="Grupo_57" data-name="Grupo 57" transform="translate(0.6 0.6)">
        <g id="Grupo_56" data-name="Grupo 56" transform="translate(0 10.172)">
            <line id="Línea_55" data-name="Línea 55" x1="66.921" transform="translate(7.602 41.652)" fill="none"
                  stroke="#14202d" stroke-linecap="round" stroke-linejoin="round" stroke-miterlimit="10"
                  stroke-width="1.2"/>
            <path id="Trazado_90" data-name="Trazado 90" d="M70.2,49.439h4.283a3.319,3.319,0,0,0,0-6.639H71.057"
                  transform="translate(4.324 -7.787)" fill="none" stroke="#14202d" stroke-linecap="round"
                  stroke-linejoin="round" stroke-miterlimit="10" stroke-width="1.2"/>
            <line id="Línea_56" data-name="Línea 56" x2="68.528" transform="translate(6.853 34.906)" fill="none"
                  stroke="#14202d" stroke-linecap="round" stroke-linejoin="round" stroke-miterlimit="10"
                  stroke-width="1.2"/>
            <path id="Trazado_91" data-name="Trazado 91"
                  d="M7.453,42.7H3.919A3.336,3.336,0,0,0,.6,46.019a3.43,3.43,0,0,0,3.319,3.426H8.2"
                  transform="translate(-0.6 -7.794)" fill="none" stroke="#14202d" stroke-linecap="round"
                  stroke-linejoin="round" stroke-miterlimit="10" stroke-width="1.2"/>
            <path id="Trazado_92" data-name="Trazado 92" d="M7,45.006v-.642a34.264,34.264,0,0,1,68.528,0v.642"
                  transform="translate(-0.147 -10.1)" fill="none" stroke="#14202d" stroke-linecap="round"
                  stroke-linejoin="round" stroke-miterlimit="10" stroke-width="1.2"/>
        </g>
        <path id="Trazado_93" data-name="Trazado 93"
              d="M70.965,55.753H11.753A6.9,6.9,0,0,1,4.9,48.9H77.818A6.765,6.765,0,0,1,70.965,55.753Z"
              transform="translate(-0.296 2.817)" fill="none" stroke="#14202d" stroke-linecap="round"
              stroke-linejoin="round" stroke-miterlimit="10" stroke-width="1.2"/>
        <rect id="Rectángulo_11" data-name="Rectángulo 11" width="6.532" height="10.172" transform="translate(37.797 0)"
              fill="none" stroke="#14202d" stroke-linecap="round" stroke-linejoin="round" stroke-miterlimit="10"
              stroke-width="1.2"/>
        <line id="Línea_57" data-name="Línea 57" x2="20.023" transform="translate(31.052 0)" fill="none"
              stroke="#14202d" stroke-linecap="round" stroke-linejoin="round" stroke-miterlimit="10"
              stroke-width="1.2"/>
    </g>
</svg>
