<svg xmlns="http://www.w3.org/2000/svg" width="27.66" height="28.165" viewBox="0 0 27.66 28.165">
  <g id="Grupo_72" data-name="Grupo 72" transform="translate(-1.503 -1.25)">
    <path id="Trazado_111" data-name="Trazado 111" d="M13.333,20.866A5.333,5.333,0,1,0,8,15.533,5.333,5.333,0,0,0,13.333,20.866Z" transform="translate(1.916 2.732)" fill="none" stroke="#663419" stroke-linecap="round" stroke-linejoin="round" stroke-miterlimit="10" stroke-width="1.5"/>
    <path id="Trazado_112" data-name="Trazado 112" d="M10.44,14.627l.867.867a.664.664,0,0,0,.92.013L14.6,13.32" transform="translate(2.729 3.772)" fill="none" stroke="#663419" stroke-linecap="round" stroke-linejoin="round" stroke-width="1.5"/>
    <path id="Trazado_113" data-name="Trazado 113" d="M9.916,28.664H20.582c5.36,0,6.319-2.146,6.6-4.76l1-10.666c.36-3.253-.573-5.906-6.266-5.906H8.583c-5.693,0-6.626,2.653-6.266,5.906l1,10.666C3.6,26.518,4.557,28.664,9.916,28.664Zm0-21.332V6.266c0-2.36,0-4.266,4.266-4.266h2.133c4.266,0,4.266,1.907,4.266,4.266V7.333" transform="translate(0)" fill="none" stroke="#663419" stroke-linecap="round" stroke-linejoin="round" stroke-miterlimit="10" stroke-width="1.5"/>
    <path id="Trazado_114" data-name="Trazado 114" d="M27.991,11a21.778,21.778,0,0,1-7.519,3.52M2.62,11.36a21.912,21.912,0,0,0,7.173,3.213" transform="translate(0.124 2.999)" fill="none" stroke="#663419" stroke-linecap="round" stroke-linejoin="round" stroke-miterlimit="10" stroke-width="1.5"/>
  </g>
</svg>
