<svg width="79" height="74" xmlns="http://www.w3.org/2000/svg" xmlns:xlink="http://www.w3.org/1999/xlink" xmlns:svgjs="http://svgjs.com/svgjs" viewBox="375 3305 79 74"><svg width="57" height="37" xmlns="http://www.w3.org/2000/svg" xmlns:xlink="http://www.w3.org/1999/xlink" xmlns:svgjs="http://svgjs.com/svgjs" viewBox="0 0.448 57 36.104" fill="none" stroke-miterlimit="100" stroke-linecap="round" stroke="#14202d" stroke-width="1.2" x="390" y="3320"><svg xmlns="http://www.w3.org/2000/svg" xmlns:xlink="http://www.w3.org/1999/xlink" width="57" height="37" viewBox="0.865 0.667 55.786 35.334"><path paint-order="stroke fill markers" fill-rule="evenodd" d="M53.866 36.002H3.65c-1.5 0-2.784-1.178-2.784-2.785V3.451c0-1.5 1.178-2.784 2.784-2.784h50.217c1.5 0 2.784 1.178 2.784 2.784v29.874c0 1.499-1.285 2.677-2.784 2.677z"/></svg></svg><svg width="45" height="25" xmlns="http://www.w3.org/2000/svg" xmlns:xlink="http://www.w3.org/1999/xlink" xmlns:svgjs="http://svgjs.com/svgjs" viewBox="0.218 0 44.565 25" fill="none" stroke-miterlimit="100" stroke-linecap="round" stroke="#14202d" stroke-width="1.2" x="396" y="3326"><svg xmlns="http://www.w3.org/2000/svg" xmlns:xlink="http://www.w3.org/1999/xlink" width="45" height="25" viewBox="0.861 0.02 43.9 24.627"><path paint-order="stroke fill markers" fill-rule="evenodd" d="M.86.02h43.901v24.628H.861V.02z"/></svg></svg><svg width="70" height="23" xmlns="http://www.w3.org/2000/svg" xmlns:xlink="http://www.w3.org/1999/xlink" xmlns:svgjs="http://svgjs.com/svgjs" viewBox="0 0.097 70 22.806" fill="none" stroke-miterlimit="100" stroke-linecap="round" stroke="#14202d" stroke-width="1.2" x="384" y="3356"><svg xmlns="http://www.w3.org/2000/svg" xmlns:xlink="http://www.w3.org/1999/xlink" width="70" height="23" viewBox="0.249 0.002 69.017 22.485"><path paint-order="stroke fill markers" fill-rule="evenodd" d="M68.004 22.487H1.511a1.262 1.262 0 0 1-1.178-1.713L8.043.002h53.43l7.709 20.772a1.262 1.262 0 0 1-1.178 1.713z"/></svg></svg><svg width="45" height="0" xmlns="http://www.w3.org/2000/svg" xmlns:xlink="http://www.w3.org/1999/xlink" xmlns:svgjs="http://svgjs.com/svgjs" viewBox="396 3363 45 0" x="396" y="3363"><svg width="4" height="0" xmlns="http://www.w3.org/2000/svg" xmlns:xlink="http://www.w3.org/1999/xlink" xmlns:svgjs="http://svgjs.com/svgjs" fill="none" stroke-miterlimit="100" stroke-linecap="round" stroke="#14202d" stroke-width="1.2" x="396" y="3363"><svg xmlns="http://www.w3.org/2000/svg" xmlns:xlink="http://www.w3.org/1999/xlink" width="4" height="0"><path paint-order="stroke fill markers" fill-rule="evenodd" d="M.86.497H.862"/></svg></svg><svg width="4" height="0" xmlns="http://www.w3.org/2000/svg" xmlns:xlink="http://www.w3.org/1999/xlink" xmlns:svgjs="http://svgjs.com/svgjs" fill="none" stroke-miterlimit="100" stroke-linecap="round" stroke="#14202d" stroke-width="1.2" x="404" y="3363"><svg xmlns="http://www.w3.org/2000/svg" xmlns:xlink="http://www.w3.org/1999/xlink" width="4" height="0"><path paint-order="stroke fill markers" fill-rule="evenodd" d="M.998.497h0"/></svg></svg><svg width="4" height="0" xmlns="http://www.w3.org/2000/svg" xmlns:xlink="http://www.w3.org/1999/xlink" xmlns:svgjs="http://svgjs.com/svgjs" fill="none" stroke-miterlimit="100" stroke-linecap="round" stroke="#14202d" stroke-width="1.2" x="413" y="3363"><svg xmlns="http://www.w3.org/2000/svg" xmlns:xlink="http://www.w3.org/1999/xlink" width="4" height="0"><path paint-order="stroke fill markers" fill-rule="evenodd" d="M.136.497h0"/></svg></svg><svg width="4" height="0" xmlns="http://www.w3.org/2000/svg" xmlns:xlink="http://www.w3.org/1999/xlink" xmlns:svgjs="http://svgjs.com/svgjs" fill="none" stroke-miterlimit="100" stroke-linecap="round" stroke="#14202d" stroke-width="1.2" x="421" y="3363"><svg xmlns="http://www.w3.org/2000/svg" xmlns:xlink="http://www.w3.org/1999/xlink" width="4" height="0"><path paint-order="stroke fill markers" fill-rule="evenodd" d="M.274.497h0"/></svg></svg><svg width="4" height="0" xmlns="http://www.w3.org/2000/svg" xmlns:xlink="http://www.w3.org/1999/xlink" xmlns:svgjs="http://svgjs.com/svgjs" fill="none" stroke-miterlimit="100" stroke-linecap="round" stroke="#14202d" stroke-width="1.2" x="429" y="3363"><svg xmlns="http://www.w3.org/2000/svg" xmlns:xlink="http://www.w3.org/1999/xlink" width="4" height="0"><path paint-order="stroke fill markers" fill-rule="evenodd" d="M.411.497h0"/></svg></svg><svg width="4" height="0" xmlns="http://www.w3.org/2000/svg" xmlns:xlink="http://www.w3.org/1999/xlink" xmlns:svgjs="http://svgjs.com/svgjs" fill="none" stroke-miterlimit="100" stroke-linecap="round" stroke="#14202d" stroke-width="1.2" x="437" y="3363"><svg xmlns="http://www.w3.org/2000/svg" xmlns:xlink="http://www.w3.org/1999/xlink" width="4" height="0"><path paint-order="stroke fill markers" fill-rule="evenodd" d="M.55.497H.548"/></svg></svg></svg><svg width="53" height="0" xmlns="http://www.w3.org/2000/svg" xmlns:xlink="http://www.w3.org/1999/xlink" xmlns:svgjs="http://svgjs.com/svgjs" viewBox="392 3370 53 0" x="392" y="3370"><svg width="4" height="0" xmlns="http://www.w3.org/2000/svg" xmlns:xlink="http://www.w3.org/1999/xlink" xmlns:svgjs="http://svgjs.com/svgjs" fill="none" stroke-miterlimit="100" stroke-linecap="round" stroke="#14202d" stroke-width="1.2" x="392" y="3370"><svg xmlns="http://www.w3.org/2000/svg" xmlns:xlink="http://www.w3.org/1999/xlink" width="4" height="0"><path paint-order="stroke fill markers" fill-rule="evenodd" d="M.578.992h0"/></svg></svg><svg width="4" height="0" xmlns="http://www.w3.org/2000/svg" xmlns:xlink="http://www.w3.org/1999/xlink" xmlns:svgjs="http://svgjs.com/svgjs" fill="none" stroke-miterlimit="100" stroke-linecap="round" stroke="#14202d" stroke-width="1.2" x="400" y="3370"><svg xmlns="http://www.w3.org/2000/svg" xmlns:xlink="http://www.w3.org/1999/xlink" width="4" height="0"><path paint-order="stroke fill markers" fill-rule="evenodd" d="M.716.992h0"/></svg></svg><svg width="4" height="0" xmlns="http://www.w3.org/2000/svg" xmlns:xlink="http://www.w3.org/1999/xlink" xmlns:svgjs="http://svgjs.com/svgjs" fill="none" stroke-miterlimit="100" stroke-linecap="round" stroke="#14202d" stroke-width="1.2" x="408" y="3370"><svg xmlns="http://www.w3.org/2000/svg" xmlns:xlink="http://www.w3.org/1999/xlink" width="4" height="0"><path paint-order="stroke fill markers" fill-rule="evenodd" d="M.96.992h0"/></svg></svg><svg width="4" height="0" xmlns="http://www.w3.org/2000/svg" xmlns:xlink="http://www.w3.org/1999/xlink" xmlns:svgjs="http://svgjs.com/svgjs" fill="none" stroke-miterlimit="100" stroke-linecap="round" stroke="#14202d" stroke-width="1.2" x="417" y="3370"><svg xmlns="http://www.w3.org/2000/svg" xmlns:xlink="http://www.w3.org/1999/xlink" width="4" height="0"><path paint-order="stroke fill markers" fill-rule="evenodd" d="M.205.992h0"/></svg></svg><svg width="4" height="0" xmlns="http://www.w3.org/2000/svg" xmlns:xlink="http://www.w3.org/1999/xlink" xmlns:svgjs="http://svgjs.com/svgjs" fill="none" stroke-miterlimit="100" stroke-linecap="round" stroke="#14202d" stroke-width="1.2" x="425" y="3370"><svg xmlns="http://www.w3.org/2000/svg" xmlns:xlink="http://www.w3.org/1999/xlink" width="4" height="0"><path paint-order="stroke fill markers" fill-rule="evenodd" d="M.343.992h0"/></svg></svg><svg width="4" height="0" xmlns="http://www.w3.org/2000/svg" xmlns:xlink="http://www.w3.org/1999/xlink" xmlns:svgjs="http://svgjs.com/svgjs" fill="none" stroke-miterlimit="100" stroke-linecap="round" stroke="#14202d" stroke-width="1.2" x="433" y="3370"><svg xmlns="http://www.w3.org/2000/svg" xmlns:xlink="http://www.w3.org/1999/xlink" width="4" height="0"><path paint-order="stroke fill markers" fill-rule="evenodd" d="M.587.992h0"/></svg></svg><svg width="4" height="0" xmlns="http://www.w3.org/2000/svg" xmlns:xlink="http://www.w3.org/1999/xlink" xmlns:svgjs="http://svgjs.com/svgjs" fill="none" stroke-miterlimit="100" stroke-linecap="round" stroke="#14202d" stroke-width="1.2" x="441" y="3370"><svg xmlns="http://www.w3.org/2000/svg" xmlns:xlink="http://www.w3.org/1999/xlink" width="4" height="0"><path paint-order="stroke fill markers" fill-rule="evenodd" d="M.832.992h0"/></svg></svg></svg><svg width="20" height="20" xmlns="http://www.w3.org/2000/svg" xmlns:xlink="http://www.w3.org/1999/xlink" xmlns:svgjs="http://svgjs.com/svgjs" viewBox="375 3305 20 20" x="375" y="3305"><svg width="15" height="16" xmlns="http://www.w3.org/2000/svg" xmlns:xlink="http://www.w3.org/1999/xlink" xmlns:svgjs="http://svgjs.com/svgjs" viewBox="0 0.5 15 15" fill="none" stroke-miterlimit="100" stroke-linecap="round" stroke="#14202d" stroke-width="1.2" x="380" y="3309"><svg xmlns="http://www.w3.org/2000/svg" xmlns:xlink="http://www.w3.org/1999/xlink" width="15" height="16" viewBox="0.585 0.853 14.348 14.348"><path paint-order="stroke fill markers" fill-rule="evenodd" d="M.585 15.2C.585 7.277 7.01.853 14.933.853L.585 15.2"/></svg></svg><svg width="10" height="11" xmlns="http://www.w3.org/2000/svg" xmlns:xlink="http://www.w3.org/1999/xlink" xmlns:svgjs="http://svgjs.com/svgjs" viewBox="0 0.5 10 10" fill="none" stroke-miterlimit="100" stroke-linecap="round" stroke="#14202d" stroke-width="1.2" x="385" y="3314"><svg xmlns="http://www.w3.org/2000/svg" xmlns:xlink="http://www.w3.org/1999/xlink" width="10" height="11" viewBox="0.297 0.671 9.53 9.53"><path paint-order="stroke fill markers" fill-rule="evenodd" d="M.297 10.2C.297 4.954 4.58.67 9.827.67L.296 10.2"/></svg></svg><svg width="20" height="20" xmlns="http://www.w3.org/2000/svg" xmlns:xlink="http://www.w3.org/1999/xlink" xmlns:svgjs="http://svgjs.com/svgjs" fill="none" stroke-miterlimit="100" stroke-linecap="round" stroke="#14202d" stroke-width="1.2" x="375" y="3305"><svg xmlns="http://www.w3.org/2000/svg" width="20" height="20" viewBox="0.767 0.141 19.059 19.059"><path paint-order="stroke fill markers" fill-rule="evenodd" d="M.767 19.2C.767 8.707 9.333.141 19.827.141L.766 19.201"/></svg></svg></svg></svg>