<svg xmlns="http://www.w3.org/2000/svg" width="78.71" height="74.546" viewBox="0 0 78.71 74.546">
    <g id="Grupo_45" data-name="Grupo 45" transform="translate(0.6 0.6)">
        <path id="Trazado_68" data-name="Trazado 68" d="M67.7,50.435H17.484A2.765,2.765,0,0,1,14.7,47.651V17.884A2.765,2.765,0,0,1,17.484,15.1H67.7a2.765,2.765,0,0,1,2.784,2.784V47.758A2.743,2.743,0,0,1,67.7,50.435Z" transform="translate(0.397 0.426)" fill="none" stroke="#14202d" stroke-linecap="round" stroke-linejoin="round" stroke-miterlimit="10" stroke-width="1.2"/>
        <rect id="Rectángulo_10" data-name="Rectángulo 10" width="43.9" height="24.627" transform="translate(21.094 20.879)" fill="none" stroke="#14202d" stroke-linecap="round" stroke-linejoin="round" stroke-miterlimit="10" stroke-width="1.2"/>
        <path id="Trazado_69" data-name="Trazado 69" d="M76.277,70.586H9.783a1.262,1.262,0,0,1-1.178-1.713L16.315,48.1h53.43l7.709,20.772A1.262,1.262,0,0,1,76.277,70.586Z" transform="translate(-0.04 2.76)" fill="none" stroke="#14202d" stroke-linecap="round" stroke-linejoin="round" stroke-miterlimit="10" stroke-width="1.2"/>
        <g id="Grupo_42" data-name="Grupo 42" transform="translate(21.094 58.355)">
            <line id="Línea_24" data-name="Línea 24" x2="3.212" fill="none" stroke="#14202d" stroke-linecap="round" stroke-linejoin="round" stroke-miterlimit="10" stroke-width="1.2"/>
            <line id="Línea_25" data-name="Línea 25" x2="3.212" transform="translate(8.138)" fill="none" stroke="#14202d" stroke-linecap="round" stroke-linejoin="round" stroke-miterlimit="10" stroke-width="1.2"/>
            <line id="Línea_26" data-name="Línea 26" x2="3.212" transform="translate(16.275)" fill="none" stroke="#14202d" stroke-linecap="round" stroke-linejoin="round" stroke-miterlimit="10" stroke-width="1.2"/>
            <line id="Línea_27" data-name="Línea 27" x2="3.212" transform="translate(24.413)" fill="none" stroke="#14202d" stroke-linecap="round" stroke-linejoin="round" stroke-miterlimit="10" stroke-width="1.2"/>
            <line id="Línea_28" data-name="Línea 28" x2="3.212" transform="translate(32.551)" fill="none" stroke="#14202d" stroke-linecap="round" stroke-linejoin="round" stroke-miterlimit="10" stroke-width="1.2"/>
            <line id="Línea_29" data-name="Línea 29" x2="3.212" transform="translate(40.688)" fill="none" stroke="#14202d" stroke-linecap="round" stroke-linejoin="round" stroke-miterlimit="10" stroke-width="1.2"/>
        </g>
        <g id="Grupo_43" data-name="Grupo 43" transform="translate(16.811 65.85)">
            <line id="Línea_30" data-name="Línea 30" x2="3.212" fill="none" stroke="#14202d" stroke-linecap="round" stroke-linejoin="round" stroke-miterlimit="10" stroke-width="1.2"/>
            <line id="Línea_31" data-name="Línea 31" x2="3.212" transform="translate(8.138)" fill="none" stroke="#14202d" stroke-linecap="round" stroke-linejoin="round" stroke-miterlimit="10" stroke-width="1.2"/>
            <line id="Línea_32" data-name="Línea 32" x2="3.212" transform="translate(16.382)" fill="none" stroke="#14202d" stroke-linecap="round" stroke-linejoin="round" stroke-miterlimit="10" stroke-width="1.2"/>
            <line id="Línea_33" data-name="Línea 33" x2="3.212" transform="translate(24.627)" fill="none" stroke="#14202d" stroke-linecap="round" stroke-linejoin="round" stroke-miterlimit="10" stroke-width="1.2"/>
            <line id="Línea_34" data-name="Línea 34" x2="3.212" transform="translate(32.765)" fill="none" stroke="#14202d" stroke-linecap="round" stroke-linejoin="round" stroke-miterlimit="10" stroke-width="1.2"/>
            <line id="Línea_35" data-name="Línea 35" x2="3.212" transform="translate(41.009)" fill="none" stroke="#14202d" stroke-linecap="round" stroke-linejoin="round" stroke-miterlimit="10" stroke-width="1.2"/>
            <line id="Línea_36" data-name="Línea 36" x2="3.212" transform="translate(49.254)" fill="none" stroke="#14202d" stroke-linecap="round" stroke-linejoin="round" stroke-miterlimit="10" stroke-width="1.2"/>
        </g>
        <g id="Grupo_44" data-name="Grupo 44" transform="translate(0 0)">
            <path id="Trazado_70" data-name="Trazado 70" d="M5.1,19.348A14.349,14.349,0,0,1,19.448,5" transform="translate(-0.282 -0.289)" fill="none" stroke="#14202d" stroke-linecap="round" stroke-linejoin="round" stroke-miterlimit="10" stroke-width="1.2"/>
            <path id="Trazado_71" data-name="Trazado 71" d="M9.5,19.03A9.551,9.551,0,0,1,19.03,9.5" transform="translate(0.03 0.03)" fill="none" stroke="#14202d" stroke-linecap="round" stroke-linejoin="round" stroke-miterlimit="10" stroke-width="1.2"/>
            <path id="Trazado_72" data-name="Trazado 72" d="M.6,19.659A19.1,19.1,0,0,1,19.659.6" transform="translate(-0.6 -0.6)" fill="none" stroke="#14202d" stroke-linecap="round" stroke-linejoin="round" stroke-miterlimit="10" stroke-width="1.2"/>
        </g>
    </g>
</svg>
